<?xml version="1.0" encoding="UTF-8" standalone="no"?>
<svg
   xmlns:dc="http://purl.org/dc/elements/1.1/"
   xmlns:cc="http://creativecommons.org/ns#"
   xmlns:rdf="http://www.w3.org/1999/02/22-rdf-syntax-ns#"
   xmlns:svg="http://www.w3.org/2000/svg"
   xmlns="http://www.w3.org/2000/svg"
   xmlns:sodipodi="http://sodipodi.sourceforge.net/DTD/sodipodi-0.dtd"
   xmlns:inkscape="http://www.inkscape.org/namespaces/inkscape"
   width="64"
   height="47.199554"
   viewBox="0 0 64.000001 47.199556"
   version="1.1"
   id="SVGRoot"
   sodipodi:docname="afficher.svg"
   inkscape:version="1.0.1 (3bc2e813f5, 2020-09-07)">
  <defs
     id="defs862">
    <inkscape:path-effect
       effect="powerclip"
       id="path-effect1537"
       is_visible="true"
       lpeversion="1"
       inverse="true"
       flatten="false"
       hide_clip="false"
       message="Utilise la règle de remplissage « fill-rule: evenodd » de la boîte de dialogue &lt;b&gt;Fond et contour&lt;/b&gt; en l'absence de résultat de mise à plat après une conversion en chemin." />
    <clipPath
       clipPathUnits="userSpaceOnUse"
       id="clipPath1533">
      <ellipse
         style="display:none;fill:#ffffa9;fill-opacity:0.412903;fill-rule:nonzero"
         id="ellipse1535"
         cx="379.99985"
         cy="524.87823"
         rx="600"
         ry="560"
         d="m 979.99985,524.87823 a 600,560 0 0 1 -600,559.99997 600,560 0 0 1 -600,-559.99997 600,560 0 0 1 600,-559.999995 600,560 0 0 1 600,559.999995 z" />
      <path
         id="lpe_path-effect1537"
         style="fill:#ffffa9;fill-opacity:0.412903;fill-rule:nonzero"
         class="powerclip"
         d="M -805,-241.39471 H 1565 V 1291.1512 H -805 Z M 979.99985,524.87823 a 600,560 0 0 0 -600,-559.999995 600,560 0 0 0 -600,559.999995 600,560 0 0 0 600,559.99997 600,560 0 0 0 600,-559.99997 z" />
    </clipPath>
  </defs>
  <sodipodi:namedview
     id="base"
     pagecolor="#ffffff"
     bordercolor="#666666"
     borderopacity="1.0"
     inkscape:pageopacity="0.0"
     inkscape:pageshadow="2"
     inkscape:zoom="4.3641747"
     inkscape:cx="-9.7363055"
     inkscape:cy="16.046179"
     inkscape:document-units="px"
     inkscape:current-layer="layer1"
     inkscape:document-rotation="0"
     showgrid="true"
     inkscape:window-width="1920"
     inkscape:window-height="1017"
     inkscape:window-x="-8"
     inkscape:window-y="-8"
     inkscape:window-maximized="1"
     fit-margin-left="2"
     fit-margin-top="2"
     fit-margin-right="2"
     fit-margin-bottom="2">
    <inkscape:grid
       type="xygrid"
       id="grid1432"
       originx="0.000101"
       originy="-6.5245932" />
  </sodipodi:namedview>
  <metadata
     id="metadata865">
    <rdf:RDF>
      <cc:Work
         rdf:about="">
        <dc:format>image/svg+xml</dc:format>
        <dc:type
           rdf:resource="http://purl.org/dc/dcmitype/StillImage" />
        <dc:title />
      </cc:Work>
    </rdf:RDF>
  </metadata>
  <g
     inkscape:label="Calque 1"
     inkscape:groupmode="layer"
     id="layer1"
     transform="translate(9.9999988e-7,-6.5246929)">
    <path
       style="fill:#010008;fill-opacity:0.39837402;stroke:none;stroke-width:69.2255;stroke-linecap:butt;stroke-linejoin:miter;stroke-miterlimit:4;stroke-dasharray:none;stroke-opacity:1"
       d="m -800,526.1512 c 0,0 320,-760 1182.85714,-762.53968 C 1240.1207,-238.9117 1560,526.1512 1560,526.1512 c 0,0 -320,760 -1160,760 -880,0 -1200,-760 -1200,-760 z"
       id="path1447"
       sodipodi:nodetypes="cscsc"
       clip-path="url(#clipPath1533)"
       inkscape:path-effect="#path-effect1537"
       inkscape:original-d="m -800,526.1512 c 0,0 320,-760 1182.85714,-762.53968 C 1240.1207,-238.9117 1560,526.1512 1560,526.1512 c 0,0 -320,760 -1160,760 -880,0 -1200,-760 -1200,-760 z"
       transform="matrix(0.02542373,0,0,0.02673817,22.338983,15.818851)" />
    <ellipse
       style="fill:#ffffff;fill-opacity:1;stroke:#000000;stroke-width:0.025;stroke-miterlimit:4;stroke-dasharray:none;stroke-opacity:1"
       id="path1464"
       cx="34.99678"
       cy="17.660442"
       rx="0.50764281"
       ry="1.0152856" />
    <path
       style="fill:#000000;fill-opacity:1;stroke:#000000;stroke-width:0.0380433;stroke-miterlimit:4;stroke-dasharray:none;stroke-opacity:1"
       id="path1480"
       sodipodi:type="arc"
       sodipodi:cx="31.999895"
       sodipodi:cy="29.853029"
       sodipodi:rx="8.4974718"
       sodipodi:ry="8.4974718"
       sodipodi:start="5.7595865"
       sodipodi:end="5.7058376"
       sodipodi:open="true"
       sodipodi:arc-type="arc"
       d="M 39.358921,25.604293 A 8.4974718,8.4974718 0 0 1 36.34713,37.154302 8.4974718,8.4974718 0 0 1 24.757695,34.297977 8.4974718,8.4974718 0 0 1 27.458036,22.671209 8.4974718,8.4974718 0 0 1 39.120039,25.21508" />
  </g>
</svg>
