<?xml version="1.0" encoding="UTF-8" standalone="no"?>
<svg
   xmlns:dc="http://purl.org/dc/elements/1.1/"
   xmlns:cc="http://creativecommons.org/ns#"
   xmlns:rdf="http://www.w3.org/1999/02/22-rdf-syntax-ns#"
   xmlns:svg="http://www.w3.org/2000/svg"
   xmlns="http://www.w3.org/2000/svg"
   xmlns:sodipodi="http://sodipodi.sourceforge.net/DTD/sodipodi-0.dtd"
   xmlns:inkscape="http://www.inkscape.org/namespaces/inkscape"
   version="1.1"
   id="Capa_1"
   x="0px"
   y="0px"
   width="64"
   viewBox="0 0 16.594 16.594"
   style="enable-background:new 0 0 16.594 16.594;"
   xml:space="preserve"
   sodipodi:docname="forklift-truck-svgrepo-com.svg"
   inkscape:version="1.0.1 (3bc2e813f5, 2020-09-07)"><metadata
   id="metadata49"><rdf:RDF><cc:Work
       rdf:about=""><dc:format>image/svg+xml</dc:format><dc:type
         rdf:resource="http://purl.org/dc/dcmitype/StillImage" /></cc:Work></rdf:RDF></metadata><defs
   id="defs47" /><sodipodi:namedview
   pagecolor="#ffffff"
   bordercolor="#666666"
   borderopacity="1"
   objecttolerance="10"
   gridtolerance="10"
   guidetolerance="10"
   inkscape:pageopacity="0"
   inkscape:pageshadow="2"
   inkscape:window-width="1920"
   inkscape:window-height="1017"
   id="namedview45"
   showgrid="false"
   inkscape:zoom="51.223334"
   inkscape:cx="8.2969999"
   inkscape:cy="8.2969999"
   inkscape:window-x="-8"
   inkscape:window-y="-8"
   inkscape:window-maximized="1"
   inkscape:current-layer="g12" />
<g
   id="g12">
	<g
   id="g10"
   style="fill:#483e37">
		<path
   style="fill:#483e37"
   d="M9.35,9.147c0,0-0.717-6.853-3.416-6.853c-3.067,0-4.335,0-4.335,0v6.303c-0.474,0-0.87,0-1.107,0    c-1.107,0,0,3.918,0,3.918h0.687c0.047-0.973,0.852-1.751,1.838-1.751c0.985,0,1.79,0.778,1.837,1.751h2.241    c-0.001-0.009-0.002-0.017-0.002-0.026c0-1.079,0.88-1.958,1.96-1.958c1.079,0,1.958,0.879,1.958,1.958    c0,0.126-0.013,0.248-0.035,0.367h0.693l-1.154-3.624C9.456,9.829,9.35,9.147,9.35,9.147z M5.859,9.364L4.837,7.575H2.622V3.317    h3.129c0.914,0,1.419,1.273,1.683,2.342c0.168,0.683,0.685,3.164,0.731,3.706H5.859V9.364z"
   id="path2" />
		<path
   style="fill:#483e37"
   d="M9.062,10.758c-0.939,0-1.7,0.762-1.7,1.7c0,0.939,0.761,1.7,1.7,1.7c0.938,0,1.7-0.761,1.7-1.7    C10.762,11.52,10,10.758,9.062,10.758z M9.062,13.444c-0.543,0-0.985-0.442-0.985-0.985s0.442-0.984,0.985-0.984    s0.984,0.441,0.984,0.984S9.605,13.444,9.062,13.444z"
   id="path4" />
		<path
   style="fill:#483e37"
   d="M2.969,11.069c-0.893,0-1.616,0.725-1.616,1.616c0,0.891,0.723,1.615,1.616,1.615    c0.891,0,1.615-0.725,1.615-1.615C4.583,11.794,3.86,11.069,2.969,11.069z M2.969,13.62c-0.516,0-0.935-0.419-0.935-0.935    s0.419-0.937,0.935-0.937c0.515,0,0.935,0.421,0.935,0.937S3.483,13.62,2.969,13.62z"
   id="path6" />
		<path
   style="fill:#483e37"
   d="M16.575,10.841c-0.063-0.192-0.271-0.298-0.461-0.233l-3.544,1.167L9.507,2.573    C9.443,2.381,9.236,2.279,9.043,2.342C8.851,2.406,8.747,2.613,8.812,2.805l3.18,9.548c0.052,0.153,0.193,0.25,0.348,0.25    c0.038,0,0.076-0.006,0.114-0.018l3.89-1.282C16.535,11.239,16.64,11.033,16.575,10.841z"
   id="path8" />
	</g>
</g>
<g
   id="g14">
</g>
<g
   id="g16">
</g>
<g
   id="g18">
</g>
<g
   id="g20">
</g>
<g
   id="g22">
</g>
<g
   id="g24">
</g>
<g
   id="g26">
</g>
<g
   id="g28">
</g>
<g
   id="g30">
</g>
<g
   id="g32">
</g>
<g
   id="g34">
</g>
<g
   id="g36">
</g>
<g
   id="g38">
</g>
<g
   id="g40">
</g>
<g
   id="g42">
</g>
</svg>
